<svg xmlns="http://www.w3.org/2000/svg" version="1.1" xmlns:xlink="http://www.w3.org/1999/xlink" xmlns:svgjs="http://svgjs.com/svgjs" width="1440" height="560" preserveAspectRatio="none" viewBox="0 0 1440 560"><g mask="url(&quot;#SvgjsMask1014&quot;)" fill="none"><path d="M846.9 550.75a23.14 23.14 0 1 0 12.25-44.63z" stroke="rgba(0, 34, 179, 1)"></path><path d="M117.04 330.25a24.8 24.8 0 1 0-25.65 42.46z" stroke="rgba(0, 34, 179, 1)"></path><path d="M186.85 463.51a30.28 30.28 0 1 0 46.69-38.57z" stroke="rgba(255, 0, 0, 1)"></path><path d="M1246.12 374.84L1249.6 374.84L1249.6 378.32L1246.12 378.32z" stroke="rgba(255, 0, 0, 1)"></path><path d="M395.26 307.57 a23.3 23.3 0 1 0 46.6 0 a23.3 23.3 0 1 0 -46.6 0z" fill="rgba(0, 34, 179, 1)"></path><path d="M1363.26 394.34a3.11 3.11 0 1 0-2.71-5.6z" fill="rgba(252, 0, 0, 1)"></path><path d="M84.19 79.59a32.14 32.14 0 1 0 30.37-56.66z" fill="rgba(0, 34, 179, 1)"></path><path d="M1303.49 221.27 a5.74 5.74 0 1 0 11.48 0 a5.74 5.74 0 1 0 -11.48 0z" fill="rgba(252, 0, 0, 1)"></path><path d="M171.11 120.9L216.72 120.9L216.72 163.12L171.11 163.12z" stroke="rgba(255, 0, 0, 1)"></path><path d="M850.27 84.8a1.03 1.03 0 1 0 1.96 0.64z" stroke="rgba(255, 0, 0, 1)"></path><path d="M555.85 14.19a4.01 4.01 0 1 0 1.91-7.79z" stroke="rgba(255, 0, 0, 1)"></path><path d="M142.2 48.55a3.03 3.03 0 1 0-4.49-4.07z" stroke="rgba(255, 0, 0, 1)"></path><path d="M170.73 134.03a3.04 3.04 0 1 0-1.25-5.95z" fill="rgba(255, 0, 0, 1)"></path><path d="M1168.9 217.88L1190.89 217.88L1190.89 239.87L1168.9 239.87z" fill="rgba(252, 0, 0, 1)"></path><path d="M246.73 45.18a32.58 32.58 0 1 0-21.09-61.66z" stroke="rgba(255, 0, 0, 1)"></path><path d="M29.35 346.72L50.36 346.72L50.36 355.61L29.35 355.61z" stroke="rgba(0, 34, 179, 1)"></path><path d="M1235.42 346.22L1282.92 346.22L1282.92 393.72L1235.42 393.72z" fill="rgba(252, 0, 0, 1)"></path><path d="M790.28 493.44L836.16 493.44L836.16 539.32L790.28 539.32z" fill="rgba(255, 0, 0, 1)"></path><path d="M881.96 220.56L917.9 220.56L917.9 240.91L881.96 240.91z" fill="rgba(255, 0, 0, 1)"></path><path d="M787.69 292.78L836.05 292.78L836.05 341.14L787.69 341.14z" stroke="rgba(0, 34, 179, 1)"></path><path d="M525.09 330.98L575.84 330.98L575.84 361.03L525.09 361.03z" stroke="rgba(255, 0, 0, 1)"></path><path d="M838.63 339.51L867.87 339.51L867.87 368.75L838.63 368.75z" fill="rgba(252, 0, 0, 1)"></path><path d="M150.36 283.29L159.8 283.29L159.8 292.73L150.36 292.73z" stroke="rgba(252, 0, 0, 1)"></path><path d="M485.19 314.41 a1.8 1.8 0 1 0 3.6 0 a1.8 1.8 0 1 0 -3.6 0z" stroke="rgba(255, 0, 0, 1)"></path><path d="M360.78 164.39a15.19 15.19 0 1 0-22.93 19.93z" fill="rgba(255, 0, 0, 1)"></path><path d="M742 536.02L759.71 536.02L759.71 587.23L742 587.23z" fill="rgba(0, 34, 179, 1)"></path><path d="M1385.64 280.52 a40.44 40.44 0 1 0 80.88 0 a40.44 40.44 0 1 0 -80.88 0z" stroke="rgba(252, 0, 0, 1)"></path><path d="M504.55 374.58L506.67 374.58L506.67 405.26L504.55 405.26z" fill="rgba(255, 0, 0, 1)"></path><path d="M1052.18 515.24 a7.17 7.17 0 1 0 14.34 0 a7.17 7.17 0 1 0 -14.34 0z" fill="rgba(0, 34, 179, 1)"></path><path d="M308.98 556.01L359.18 556.01L359.18 568.45L308.98 568.45z" stroke="rgba(0, 34, 179, 1)"></path><path d="M296.75 451.8a17.34 17.34 0 1 0 23.24 25.74z" stroke="rgba(0, 34, 179, 1)"></path><path d="M153.29 189.44L170.42 189.44L170.42 215.4L153.29 215.4z" fill="rgba(255, 0, 0, 1)"></path><path d="M769.81 18.85L782.82 18.85L782.82 62.07L769.81 62.07z" fill="rgba(252, 0, 0, 1)"></path></g><defs><mask id="SvgjsMask1014"><rect width="1440" height="560" fill="#ffffff"></rect></mask></defs></svg>