<svg xmlns="http://www.w3.org/2000/svg" version="1.1" xmlns:xlink="http://www.w3.org/1999/xlink" xmlns:svgjs="http://svgjs.com/svgjs" width="1440" height="560" preserveAspectRatio="none" viewBox="0 0 1440 560"><g mask="url(&quot;#SvgjsMask1007&quot;)" fill="none"><path d="M588.44 195.21 a31.35 31.35 0 1 0 62.7 0 a31.35 31.35 0 1 0 -62.7 0z" fill="rgba(0, 34, 179, 1)"></path><path d="M282.55 44.4a22.02 22.02 0 1 0-0.06-44.04z" fill="rgba(0, 0, 0, 1)"></path><path d="M421.14 118.14 a9.82 9.82 0 1 0 19.64 0 a9.82 9.82 0 1 0 -19.64 0z" stroke="rgba(0, 34, 179, 1)"></path><path d="M596.78 89.95 a11.21 11.21 0 1 0 22.42 0 a11.21 11.21 0 1 0 -22.42 0z" fill="rgba(0, 0, 0, 1)"></path><path d="M171.13 245.92 a43.61 43.61 0 1 0 87.22 0 a43.61 43.61 0 1 0 -87.22 0z" stroke="rgba(0, 0, 0, 1)"></path><path d="M632.79 541.54 a20.51 20.51 0 1 0 41.02 0 a20.51 20.51 0 1 0 -41.02 0z" stroke="rgba(252, 0, 0, 1)"></path><path d="M1365.79 111.91 a47.19 47.19 0 1 0 94.38 0 a47.19 47.19 0 1 0 -94.38 0z" fill="rgba(252, 0, 0, 1)"></path><path d="M909.62 181.36L936.13 181.36L936.13 219.63L909.62 219.63z" fill="rgba(0, 0, 0, 1)"></path><path d="M703.04 80.8L736.81 80.8L736.81 114.57L703.04 114.57z" stroke="rgba(252, 0, 0, 1)"></path><path d="M1329.03 51.64 a40.14 40.14 0 1 0 80.28 0 a40.14 40.14 0 1 0 -80.28 0z" stroke="rgba(0, 0, 0, 1)"></path><path d="M240.69 172.18L244.9 172.18L244.9 176.39L240.69 176.39z" stroke="rgba(252, 0, 0, 1)"></path><path d="M647.82 353.36L682.98 353.36L682.98 397.94L647.82 397.94z" fill="rgba(0, 34, 179, 1)"></path><path d="M30.13 85.29 a14.35 14.35 0 1 0 28.7 0 a14.35 14.35 0 1 0 -28.7 0z" stroke="rgba(0, 34, 179, 1)"></path><path d="M1081.12 129.26 a20.73 20.73 0 1 0 41.46 0 a20.73 20.73 0 1 0 -41.46 0z" fill="rgba(0, 34, 179, 1)"></path><path d="M1072.5 433.19 a0.32 0.32 0 1 0 0.64 0 a0.32 0.32 0 1 0 -0.64 0z" fill="rgba(0, 0, 0, 1)"></path><path d="M789.95 252.3a16.78 16.78 0 1 0-4.86-33.2z" fill="rgba(0, 0, 0, 1)"></path><path d="M957.06 212.68L966.55 212.68L966.55 226.07L957.06 226.07z" fill="rgba(0, 34, 179, 1)"></path><path d="M1271.22 302.61a25.31 25.31 0 1 0 47.79-16.69z" stroke="rgba(0, 34, 179, 1)"></path><path d="M854.1 252.38L901.63 252.38L901.63 260.83L854.1 260.83z" fill="rgba(252, 0, 0, 1)"></path><path d="M846.91 305.3a23.48 23.48 0 1 0-4.61 46.73z" fill="rgba(252, 0, 0, 1)"></path><path d="M351.11 179.2L406.48 179.2L406.48 211.76L351.11 211.76z" fill="rgba(0, 0, 0, 1)"></path><path d="M353.07 539.42L354.05 539.42L354.05 540.4L353.07 540.4z" fill="rgba(252, 0, 0, 1)"></path><path d="M468.13 143.45L496.28 143.45L496.28 171.6L468.13 171.6z" fill="rgba(0, 34, 179, 1)"></path><path d="M1160.72 487.34 a22.77 22.77 0 1 0 45.54 0 a22.77 22.77 0 1 0 -45.54 0z" stroke="rgba(252, 0, 0, 1)"></path><path d="M996.39 272.15L998.85 272.15L998.85 274.61L996.39 274.61z" fill="rgba(252, 0, 0, 1)"></path><path d="M1309.47 317.36L1342.51 317.36L1342.51 361.01L1309.47 361.01z" stroke="rgba(0, 34, 179, 1)"></path><path d="M184.33 406.4a55.54 55.54 0 1 0 101.06 46.12z" stroke="rgba(0, 34, 179, 1)"></path><path d="M735.74 277.95a38.55 38.55 0 1 0 76.44-10.06z" stroke="rgba(0, 0, 0, 1)"></path><path d="M428.29 543.29a5.13 5.13 0 1 0-8.54 5.68z" fill="rgba(0, 34, 179, 1)"></path><path d="M1347.07 275.61a15.78 15.78 0 1 0-21.2-23.38z" stroke="rgba(252, 0, 0, 1)"></path><path d="M1328.55 503.38L1337.8 503.38L1337.8 526.19L1328.55 526.19z" fill="rgba(0, 0, 0, 1)"></path><path d="M741.58 85.95a31.87 31.87 0 1 0 14.92 61.97z" fill="rgba(0, 0, 0, 1)"></path><path d="M897.62 163.37L919.63 163.37L919.63 206.27L897.62 206.27z" stroke="rgba(0, 34, 179, 1)"></path></g><defs><mask id="SvgjsMask1007"><rect width="1440" height="560" fill="#ffffff"></rect></mask></defs></svg>