<svg xmlns="http://www.w3.org/2000/svg" version="1.1" xmlns:xlink="http://www.w3.org/1999/xlink" xmlns:svgjs="http://svgjs.com/svgjs" width="1440" height="560" preserveAspectRatio="none" viewBox="0 0 1440 560"><g mask="url(&quot;#SvgjsMask1017&quot;)" fill="none"><path d="M222 225L221 -156" stroke-width="8" stroke="url(#SvgjsLinearGradient1018)" stroke-linecap="round" class="Down"></path><path d="M1162 24L1161 393" stroke-width="10" stroke="url(#SvgjsLinearGradient1018)" stroke-linecap="round" class="Down"></path><path d="M433 136L432 -93" stroke-width="10" stroke="url(#SvgjsLinearGradient1019)" stroke-linecap="round" class="Up"></path><path d="M756 231L755 -166" stroke-width="6" stroke="url(#SvgjsLinearGradient1019)" stroke-linecap="round" class="Up"></path><path d="M38 108L37 249" stroke-width="10" stroke="url(#SvgjsLinearGradient1018)" stroke-linecap="round" class="Down"></path><path d="M1298 369L1297 662" stroke-width="10" stroke="url(#SvgjsLinearGradient1018)" stroke-linecap="round" class="Down"></path><path d="M488 473L487 246" stroke-width="10" stroke="url(#SvgjsLinearGradient1018)" stroke-linecap="round" class="Down"></path><path d="M683 425L682 250" stroke-width="6" stroke="url(#SvgjsLinearGradient1019)" stroke-linecap="round" class="Up"></path><path d="M1102 307L1101 456" stroke-width="8" stroke="url(#SvgjsLinearGradient1019)" stroke-linecap="round" class="Up"></path><path d="M504 357L503 583" stroke-width="10" stroke="url(#SvgjsLinearGradient1018)" stroke-linecap="round" class="Down"></path><path d="M641 487L640 688" stroke-width="8" stroke="url(#SvgjsLinearGradient1018)" stroke-linecap="round" class="Down"></path><path d="M1023 306L1022 54" stroke-width="6" stroke="url(#SvgjsLinearGradient1018)" stroke-linecap="round" class="Down"></path><path d="M42 274L41 -1" stroke-width="10" stroke="url(#SvgjsLinearGradient1018)" stroke-linecap="round" class="Down"></path><path d="M1173 378L1172 203" stroke-width="10" stroke="url(#SvgjsLinearGradient1019)" stroke-linecap="round" class="Up"></path><path d="M1147 214L1146 389" stroke-width="8" stroke="url(#SvgjsLinearGradient1019)" stroke-linecap="round" class="Up"></path><path d="M834 366L833 595" stroke-width="6" stroke="url(#SvgjsLinearGradient1018)" stroke-linecap="round" class="Down"></path><path d="M881 502L880 169" stroke-width="6" stroke="url(#SvgjsLinearGradient1019)" stroke-linecap="round" class="Up"></path><path d="M1233 347L1232 648" stroke-width="8" stroke="url(#SvgjsLinearGradient1018)" stroke-linecap="round" class="Down"></path><path d="M453 35L452 342" stroke-width="6" stroke="url(#SvgjsLinearGradient1019)" stroke-linecap="round" class="Up"></path><path d="M505 109L504 -258" stroke-width="10" stroke="url(#SvgjsLinearGradient1019)" stroke-linecap="round" class="Up"></path><path d="M232 409L231 626" stroke-width="10" stroke="url(#SvgjsLinearGradient1019)" stroke-linecap="round" class="Up"></path><path d="M1270 269L1269 681" stroke-width="6" stroke="url(#SvgjsLinearGradient1019)" stroke-linecap="round" class="Up"></path><path d="M775 372L774 105" stroke-width="6" stroke="url(#SvgjsLinearGradient1018)" stroke-linecap="round" class="Down"></path><path d="M1371 426L1370 190" stroke-width="6" stroke="url(#SvgjsLinearGradient1018)" stroke-linecap="round" class="Down"></path><path d="M1054 5L1053 -202" stroke-width="8" stroke="url(#SvgjsLinearGradient1019)" stroke-linecap="round" class="Up"></path><path d="M1069 278L1068 -10" stroke-width="8" stroke="url(#SvgjsLinearGradient1019)" stroke-linecap="round" class="Up"></path><path d="M1303 455L1302 121" stroke-width="6" stroke="url(#SvgjsLinearGradient1019)" stroke-linecap="round" class="Up"></path><path d="M234 10L233 398" stroke-width="10" stroke="url(#SvgjsLinearGradient1019)" stroke-linecap="round" class="Up"></path><path d="M508 437L507 124" stroke-width="6" stroke="url(#SvgjsLinearGradient1019)" stroke-linecap="round" class="Up"></path><path d="M791 441L790 166" stroke-width="10" stroke="url(#SvgjsLinearGradient1019)" stroke-linecap="round" class="Up"></path><path d="M1153 231L1152 482" stroke-width="6" stroke="url(#SvgjsLinearGradient1019)" stroke-linecap="round" class="Up"></path><path d="M492 118L491 326" stroke-width="8" stroke="url(#SvgjsLinearGradient1018)" stroke-linecap="round" class="Down"></path><path d="M1173 467L1172 68" stroke-width="6" stroke="url(#SvgjsLinearGradient1019)" stroke-linecap="round" class="Up"></path><path d="M252 498L251 751" stroke-width="10" stroke="url(#SvgjsLinearGradient1018)" stroke-linecap="round" class="Down"></path><path d="M191 121L190 499" stroke-width="6" stroke="url(#SvgjsLinearGradient1019)" stroke-linecap="round" class="Up"></path><path d="M626 291L625 577" stroke-width="6" stroke="url(#SvgjsLinearGradient1018)" stroke-linecap="round" class="Down"></path></g><defs><mask id="SvgjsMask1017"><rect width="1440" height="560" fill="#ffffff"></rect></mask><linearGradient x1="0%" y1="0%" x2="0%" y2="100%" id="SvgjsLinearGradient1018"><stop stop-color="rgba(0, 0, 0, 0)" offset="0"></stop><stop stop-color="rgba(0, 0, 0, 1)" offset="1"></stop></linearGradient><linearGradient x1="0%" y1="100%" x2="0%" y2="0%" id="SvgjsLinearGradient1019"><stop stop-color="rgba(0, 0, 0, 0)" offset="0"></stop><stop stop-color="rgba(0, 0, 0, 1)" offset="1"></stop></linearGradient></defs></svg>